<svg id="be329758-1e79-4496-b7b0-ee4b18cc6a53" data-name="Questrial Expanded cut 01 copy" xmlns="http://www.w3.org/2000/svg" xmlns:xlink="http://www.w3.org/1999/xlink" width="1024" height="256" viewBox="0 0 1024 256">
  <defs>
    <linearGradient id="ed17dba2-85a3-4455-9b79-dfe7f012b16b" x1="511" y1="199.849" x2="511" y2="57.906" gradientUnits="userSpaceOnUse">
      <stop offset="0" stop-color="#e0ecef" stop-opacity="0.9"/>
      <stop offset="1" stop-color="#6c8083" stop-opacity="0.76"/>
    </linearGradient>
  </defs>
  <title>Deceit Logo Text 1024x256</title>
  <path d="M782,131h15v63H782ZM705,62H629V76h76Zm92,0H782v63h15ZM916,194h15V76h46V62H916ZM870,62V76h40V62ZM623,62H608V194h97V180H623V135h74V121H623ZM263,194h76V180H263ZM339,76V62H242V194h15V135h74V121H257V76ZM45,82V194h55.8a59.834,59.834,0,0,0,22.8-4.487,57.059,57.059,0,0,0,19.4-13.06Q161.6,157.513,161.6,128T143,79.546a57.131,57.131,0,0,0-19.4-13.06A59.814,59.814,0,0,0,100.8,62H45V76h55.2c13.866,0,25.131,5.276,33.8,15.511Q146.6,106.268,146.6,128T134,164.489C125.33,174.727,114.065,180,100.2,180c-10.05,0-40.2-.158-40.2-.158V82Zm454.3,91.861a43.64,43.64,0,0,1-24.9,7.178q-25.8,0-39.4-15.353Q423.726,153.07,422.236,134H407.205q1.608,24.909,16.8,41.854Q442,195.6,471,195.6q22,0,38.2-11.565Q524.2,173.4,530.821,155H514.975A43.163,43.163,0,0,1,499.3,173.861Zm9.9-101.892Q493,60.409,471,60.4q-29,0-47,19.74Q407,99.092,407,128h15q0-23.127,13-37.685a44.709,44.709,0,0,1,15.8-11.267q9.4-4.084,23.6-4.086a43.64,43.64,0,0,1,24.9,7.178A43.163,43.163,0,0,1,514.975,101h15.846Q524.2,82.605,509.2,71.969Z" fill="url(#ed17dba2-85a3-4455-9b79-dfe7f012b16b)"/>
</svg>
